<svg aria-hidden="true" style="position: absolute; width: 0; height: 0; overflow: hidden;" version="1.1" xmlns="http://www.w3.org/2000/svg" xmlns:xlink="http://www.w3.org/1999/xlink">
<defs>
<symbol id="icon-about" viewBox="0 0 28 32">
<path d="M13.964 16.097c4.267 0 7.758-3.491 7.758-7.855 0-4.267-3.491-7.758-7.758-7.758s-7.758 3.491-7.758 7.758c0 4.364 3.491 7.855 7.758 7.855zM19.782 18.036l-2.909 11.636-1.939-8.242 1.939-3.394h-5.818l1.939 3.394-1.939 8.242-2.909-11.636c-4.364 0.194-7.758 3.782-7.758 8.145v2.521c0 1.648 1.261 2.909 2.909 2.909h21.333c1.648 0 3.006-1.261 3.006-2.909v-2.521c0-4.364-3.491-7.951-7.855-8.145z"></path>
</symbol>
<symbol id="icon-contact" viewBox="0 0 28 32">
<path d="M13.935 0.723c4.439 0 7.948 3.51 7.948 7.948 0 4.335-3.51 7.948-7.948 7.948-4.335 0-7.948-3.613-7.948-7.948 0-4.439 3.613-7.948 7.948-7.948zM13.935 31.794c-5.265 0-10.013-2.477-13.213-6.194 1.652-3.2 4.955-5.368 8.877-5.368q0.31 0 0.619 0.103c1.239 0.31 2.477 0.619 3.716 0.619 1.342 0 2.581-0.31 3.716-0.619q0.31-0.103 0.619-0.103c3.923 0 7.226 2.168 8.877 5.368-3.2 3.716-7.948 6.194-13.213 6.194z"></path>
</symbol>
<symbol id="icon-education" viewBox="0 0 54 32">
<path d="M52.87 7.235l-23.374-7.096c-1.252-0.417-2.643-0.417-3.896 0l-23.513 7.096c-1.948 0.557-1.948 3.2 0 3.757l4.174 1.252c-0.974 1.113-1.53 2.504-1.53 3.896-0.835 0.417-1.391 1.252-1.391 2.365 0 0.835 0.557 1.53 1.113 2.087l-2.087 9.461c-0.139 0.835 0.417 1.67 1.391 1.67h4.591c0.835 0 1.53-0.835 1.391-1.67l-2.226-9.461c0.696-0.557 1.252-1.252 1.252-2.087 0-0.974-0.557-1.809-1.391-2.365 0.139-1.113 0.696-2.226 1.809-2.922l16.417 4.87c0.696 0.278 2.087 0.557 3.896 0l23.374-7.096c1.948-0.557 1.948-3.2 0-3.757zM30.191 20.73c-2.365 0.696-4.313 0.278-5.426 0l-12.104-3.757-1.252 9.461c0 2.922 7.235 5.287 16.139 5.287s16-2.365 16-5.287l-1.113-9.461z"></path>
</symbol>
<symbol id="icon-experience" viewBox="0 0 35 32">
<path d="M22.171 21.371c0 0.571-0.457 1.143-1.029 1.143h-6.514c-0.571 0-1.029-0.571-1.029-1.143v-3.2h-12.914v9.714c0 1.714 1.486 3.2 3.2 3.2h28c1.714 0 3.2-1.486 3.2-3.2v-9.714h-12.914zM31.886 7.429h-5.371v-3.314c0-1.714-1.486-3.2-3.2-3.2h-10.743c-1.714 0-3.314 1.486-3.314 3.2v3.314h-5.371c-1.714 0-3.2 1.486-3.2 3.2v5.371h34.4v-5.371c0-1.714-1.486-3.2-3.2-3.2zM22.171 7.429h-8.571v-2.171h8.571z"></path>
</symbol>
<symbol id="icon-hobbies" viewBox="0 0 32 32">
<path d="M15.174 11.665v4.129c1.548 0.413 2.994 0.929 4.439 1.342v-4.129c-1.548-0.31-2.994-0.929-4.439-1.342zM28.697 4.232c-2.065 0.929-4.645 1.961-7.019 1.961-3.303 0-5.987-2.168-10.116-2.168-1.445 0-2.787 0.31-4.129 0.723q0.31-0.619 0.31-1.445c-0.103-1.652-1.548-3.097-3.303-3.2-1.961 0-3.51 1.548-3.51 3.406 0 1.239 0.516 2.168 1.445 2.787v23.432c0 0.826 0.619 1.548 1.445 1.548h0.929c0.826 0 1.548-0.723 1.548-1.548v-5.677c1.652-0.723 3.819-1.342 6.916-1.342 3.2 0 5.884 2.065 10.013 2.065 2.89 0 5.265-0.929 7.432-2.477 0.516-0.31 0.826-0.929 0.826-1.548v-14.761c0-1.445-1.445-2.374-2.787-1.755zM10.735 19.923q-2.374 0.206-4.439 1.032v-4.335c1.548-0.516 2.787-0.929 4.439-1.032zM28.594 11.768c-1.445 0.619-2.787 1.135-4.439 1.445v4.335c1.445-0.206 3.097-0.723 4.439-1.652v4.335c-1.548 0.929-2.994 1.445-4.439 1.652v-4.335c-1.652 0.206-2.994 0.103-4.542-0.413v4.129c-1.445-0.413-2.787-1.032-4.439-1.239v-4.232c-1.135-0.206-2.477-0.413-4.439-0.206v-4.232c-1.342 0.206-2.684 0.619-4.439 1.239v-4.232c1.961-0.723 2.994-1.239 4.439-1.342v4.335c1.652-0.206 2.89-0.103 4.439 0.31v-4.026c1.445 0.413 2.89 0.929 4.439 1.239v4.129c1.445 0.31 2.89 0.413 4.542 0.206v-4.335c1.652-0.31 3.097-0.826 4.439-1.445z"></path>
</symbol>
<symbol id="icon-language" viewBox="0 0 32 32">
<path d="M16.103 0.413c-8.568 0-15.587 6.916-15.587 15.587 0 8.568 7.019 15.484 15.587 15.484s15.484-6.916 15.484-15.484c0-8.671-6.916-15.587-15.484-15.587zM21.265 22.813c-0.31 0.206-0.516 0.516-0.723 0.723q-0.31 0.31-0.413 0.619c-0.103 0.413-0.103 0.723-0.31 1.135l-1.032 2.89q-1.342 0.31-2.684 0.31v-1.755c0.103-0.723-0.516-2.271-1.445-3.2-0.31-0.31-0.619-0.826-0.619-1.445v-1.961c0-0.723-0.31-1.342-1.032-1.755-0.826-0.516-2.168-1.135-2.994-1.652q-1.135-0.516-1.961-1.342h-0.103q-0.619-0.619-1.135-1.342c-0.516-0.826-1.548-2.271-2.168-3.2 1.342-2.89 3.613-5.161 6.503-6.4l1.445 0.723c0.723 0.413 1.445-0.103 1.445-0.826v-0.723q0.826-0.103 1.548-0.206l1.755 1.858c0.413 0.31 0.413 1.032 0 1.342l-0.206 0.31-0.723 0.619c-0.206 0.206-0.206 0.516 0 0.723l0.31 0.31c0.206 0.206 0.206 0.516 0 0.723l-0.516 0.516q-0.103 0.103-0.31 0.103h-0.619q-0.206 0-0.31 0.206l-0.619 0.619q-0.103 0.103-0.103 0.31 0 0.103 0 0.206l1.032 1.961c0.103 0.31-0.103 0.723-0.516 0.723h-0.31q-0.206 0-0.31-0.103l-0.619-0.516q-0.31-0.206-0.619-0.206-0.206 0-0.31 0l-1.961 0.619c-0.31 0.103-0.516 0.413-0.516 0.723s0.103 0.619 0.413 0.723l0.619 0.31q0.929 0.516 1.961 0.516c0.619 0 1.342 1.652 1.961 1.961h4.232c0.516 0 1.032 0.206 1.342 0.619l0.929 0.826c0.31 0.31 0.516 0.826 0.516 1.342 0 0.826-0.31 1.548-0.826 2.065zM26.632 17.135c-0.31-0.103-0.619-0.31-0.826-0.619l-1.135-1.755q-0.206-0.31-0.206-0.826 0-0.413 0.206-0.826l1.239-1.858q0.206-0.31 0.516-0.516l0.826-0.413c0.929 1.755 1.342 3.613 1.342 5.677q0 0.723-0.103 1.548z"></path>
</symbol>
<symbol id="icon-Location" viewBox="0 0 23 32">
<path d="M10.933 6.533c2.267 0 4.133 1.867 4.133 4.133 0 2.4-1.867 4.267-4.133 4.267s-4.133-1.867-4.133-4.267c0-2.267 1.867-4.133 4.133-4.133zM10.933 0c-5.867 0-10.533 4.8-10.533 10.667q0 0.933 0.133 1.733c0.4 4.8 4.667 14 10.267 19.733 6.267-7.2 8.933-14.267 10-17.467q0.667-1.867 0.667-4c0-5.867-4.667-10.667-10.533-10.667z"></path>
</symbol>
<symbol id="icon-reference" viewBox="0 0 45 32">
<path d="M7.172 13.683c2.428 0 4.414-1.986 4.414-4.414s-1.986-4.303-4.414-4.303c-2.428 0-4.303 1.876-4.303 4.303s1.876 4.414 4.303 4.414zM37.738 13.683c2.428 0 4.414-1.986 4.414-4.414s-1.986-4.303-4.414-4.303c-2.428 0-4.303 1.876-4.303 4.303s1.876 4.414 4.303 4.414zM39.945 15.89h-4.414c-1.214 0-2.207 0.441-3.090 1.214 2.759 1.545 4.745 4.193 5.186 7.503h4.524c1.214 0 2.097-0.993 2.097-2.207v-2.207c0-2.428-1.876-4.303-4.303-4.303zM22.51 15.89c4.193 0 7.614-3.421 7.614-7.724 0-4.193-3.421-7.614-7.614-7.614-4.303 0-7.724 3.421-7.724 7.614 0 4.303 3.421 7.724 7.724 7.724zM27.697 17.986h-0.552c-1.434 0.772-2.979 1.103-4.634 1.103-1.766 0-3.31-0.331-4.745-1.103h-0.552c-4.303 0-7.834 3.531-7.834 7.945v1.876c0 1.876 1.434 3.31 3.31 3.31h19.641c1.766 0 3.2-1.434 3.2-3.31v-1.876c0-4.414-3.531-7.945-7.834-7.945zM12.469 17.103c-0.772-0.772-1.876-1.214-3.090-1.214h-4.414c-2.317 0-4.303 1.876-4.303 4.303v2.207c0 1.214 0.993 2.207 2.207 2.207h4.414c0.441-3.31 2.428-5.959 5.186-7.503z"></path>
</symbol>
<symbol id="icon-skills" viewBox="0 0 34 32">
<path d="M32.723 18.374h-14.348l9.6 9.6c0.31 0.31 0.929 0.413 1.342 0 2.271-2.168 3.923-5.161 4.439-8.568 0-0.516-0.413-1.032-1.032-1.032zM31.794 14.452c-0.516-7.226-6.297-13.11-13.523-13.523-0.516-0.103-1.032 0.413-1.032 0.929v13.626h13.523c0.619 0 1.032-0.516 1.032-1.032zM14.348 18.374v-14.452c0-0.516-0.516-1.032-1.135-0.929-7.123 1.032-12.697 7.329-12.387 14.865 0.206 7.845 6.916 14.142 14.658 14.039 3.097 0 5.884-0.929 8.155-2.581 0.516-0.413 0.516-1.135 0.103-1.548z"></path>
</symbol>
<symbol id="icon-tel" viewBox="0 0 19 32">
<path d="M13.312 31.104q0.384 0.128 0.64-0.128 0.256-0.128 0.384-0.384l2.176-3.584c0.128-0.256 0.128-0.64 0-0.896q-0.128-0.256-0.256-0.384l-3.712-3.072c-0.256-0.256-0.64-0.256-1.024-0.128q0 0.128-0.128 0.128l-2.56 1.664c-2.432-2.176-4.096-5.376-4.608-8.704l2.816-1.152q0 0 0.128 0c0.384-0.256 0.512-0.64 0.512-1.024l-0.64-4.736q0-0.256 0-0.384c-0.256-0.256-0.512-0.512-0.768-0.512l-4.224-0.256c-0.512 0-0.896 0.256-1.024 0.64-2.944 9.728 2.56 19.968 12.288 22.912zM9.856 7.168c-0.384-0.256-0.896 0-1.024 0.384l-0.128 0.384c0 0.256 0 0.64 0.256 0.768q0.384 0.256 0.64 0.64 0.128 0.384 0.128 0.896c0 0.256 0.256 0.512 0.512 0.64l0.512 0.128c0.384 0 0.768-0.256 0.768-0.64 0.128-1.28-0.512-2.56-1.664-3.2zM11.904 0.384c-0.256-0.128-0.768 0-0.896 0.384l-0.128 0.384c0 0.384 0.128 0.768 0.384 0.896 3.968 1.536 6.272 5.76 5.376 9.984 0 0.256 0.128 0.64 0.512 0.768l0.384 0.128c0.384 0 0.768-0.128 0.896-0.512 1.024-5.12-1.664-10.112-6.528-12.032zM10.88 3.712c-0.384-0.128-0.768 0-0.896 0.384l-0.128 0.512c-0.128 0.256 0 0.64 0.384 0.768 2.176 1.024 3.328 3.328 2.944 5.632 0 0.384 0.256 0.64 0.512 0.768l0.384 0.128c0.384 0.128 0.768-0.128 0.896-0.512 0.512-3.2-1.152-6.4-4.096-7.68z"></path>
</symbol>
<symbol id="icon-Web" viewBox="0 0 32 32">
<path d="M19.2 23.808l-0.384-0.256v0.512l0.128 6.784 0.128 0.768 0.384-0.64 1.792-2.304 1.152 1.792 0.128 0.128h1.92l-0.256-0.512-1.664-2.304 2.816-0.768 0.64-0.256-0.64-0.256zM15.872 0.768c-8.192 0-14.848 6.784-14.848 15.104s6.656 15.104 14.848 15.104q0.768 0 1.28 0h0.384v-0.384l-0.256-1.792-0.128-0.128h-0.256q-0.256 0-0.384 0c-0.256 0-0.384 0-0.64 0-2.56 0-5.12-0.896-7.296-2.432 9.472-3.456 16.256-8.064 19.584-13.056q0.384 1.408 0.384 2.688c0 3.072-1.152 6.144-3.2 8.448l-0.256 0.256 0.256 0.256 1.664 0.896 0.128 0.128 0.128-0.128c2.304-2.816 3.584-6.272 3.584-9.856 0-8.32-6.656-15.104-14.976-15.104zM14.208 5.76c0.384-0.768 0.384-1.664 0.256-2.432 0.384-0.128 0.896-0.256 1.408-0.256 1.664 0 3.456 0.512 4.992 1.152-1.536 1.92-4.224 4.096-7.424 6.144q-0.512-1.28-0.768-2.56 1.152-0.896 1.536-2.048zM12.16 3.84q0.128 0.512 0 1.024c-0.512 1.152-2.048 2.176-3.584 2.304-0.384 0-1.024 0-1.536-0.256 1.408-1.408 3.2-2.432 5.12-3.072zM5.504 8.704c1.024 0.64 2.048 0.896 3.328 0.768 0.512 0 1.152-0.128 1.792-0.384q0.256 1.28 0.768 2.432c-2.816 1.536-5.504 2.56-7.936 3.328 0.128-2.304 0.896-4.352 2.048-6.144zM6.656 24.448c-1.792-2.048-2.944-4.48-3.2-7.168 2.688-0.768 5.76-1.92 8.832-3.584q1.92 3.712 4.864 6.144c-3.072 1.664-6.656 3.328-10.496 4.608zM19.2 18.432c-2.048-1.408-3.712-3.456-4.864-6.016 3.712-2.176 6.912-4.864 8.704-7.040 1.664 1.152 3.2 2.944 4.096 4.864-1.28 2.816-4.096 5.632-7.936 8.192z"></path>
</symbol>
</defs>
</svg>
